<mxfile>
    <diagram id="D9uSpnhNlywYJq99XtEv" name="Page-1">
        <mxGraphModel dx="1026" dy="461" grid="0" gridSize="10" guides="1" tooltips="1" connect="1" arrows="1" fold="1" page="1" pageScale="1" pageWidth="827" pageHeight="1169" math="0" shadow="0">
            <root>
                <mxCell id="0"/>
                <mxCell id="1" parent="0"/>
                <mxCell id="2" value="Cliente" style="shape=umlActor;verticalLabelPosition=bottom;verticalAlign=top;html=1;outlineConnect=0;" parent="1" vertex="1">
                    <mxGeometry x="90" y="240" width="30" height="60" as="geometry"/>
                </mxCell>
                <mxCell id="3" value="Sistema de Atendimento ao Cliente" style="rounded=0;whiteSpace=wrap;html=1;verticalAlign=top;" parent="1" vertex="1">
                    <mxGeometry x="190" y="40" width="330" height="360" as="geometry"/>
                </mxCell>
                <mxCell id="4" value="Visualizar Estatísticas de Uso e Recomendações&lt;br&gt;de consumo" style="ellipse;whiteSpace=wrap;html=1;" parent="1" vertex="1">
                    <mxGeometry x="220" y="150" width="150" height="70" as="geometry"/>
                </mxCell>
                <mxCell id="5" value="Configurar Fornecimento" style="ellipse;whiteSpace=wrap;html=1;" parent="1" vertex="1">
                    <mxGeometry x="202" y="240" width="120" height="40" as="geometry"/>
                </mxCell>
                <mxCell id="6" value="Autenticar Cliente" style="ellipse;whiteSpace=wrap;html=1;" parent="1" vertex="1">
                    <mxGeometry x="396" y="238" width="120" height="40" as="geometry"/>
                </mxCell>
                <mxCell id="12" value="Registrar consumo" style="ellipse;whiteSpace=wrap;html=1;" parent="1" vertex="1">
                    <mxGeometry x="240" y="80" width="120" height="40" as="geometry"/>
                </mxCell>
                <mxCell id="15" value="API Informações &lt;br&gt;Nutricionais" style="shape=umlActor;verticalLabelPosition=bottom;verticalAlign=top;html=1;outlineConnect=0;" parent="1" vertex="1">
                    <mxGeometry x="560" y="50" width="30" height="60" as="geometry"/>
                </mxCell>
                <mxCell id="24" value="Cliente" style="swimlane;fontStyle=1;align=center;verticalAlign=top;childLayout=stackLayout;horizontal=1;startSize=26;horizontalStack=0;resizeParent=1;resizeParentMax=0;resizeLast=0;collapsible=1;marginBottom=0;" parent="1" vertex="1">
                    <mxGeometry x="70" y="640" width="210" height="104" as="geometry">
                        <mxRectangle x="80" y="400" width="100" height="26" as="alternateBounds"/>
                    </mxGeometry>
                </mxCell>
                <mxCell id="25" value="+ ClienteId: int {id, readonly}&#10;+ Username: string[3..28] {unique}&#10;" style="text;strokeColor=none;fillColor=none;align=left;verticalAlign=top;spacingLeft=4;spacingRight=4;overflow=hidden;rotatable=0;points=[[0,0.5],[1,0.5]];portConstraint=eastwest;" parent="24" vertex="1">
                    <mxGeometry y="26" width="210" height="44" as="geometry"/>
                </mxCell>
                <mxCell id="26" value="" style="line;strokeWidth=1;fillColor=none;align=left;verticalAlign=middle;spacingTop=-1;spacingLeft=3;spacingRight=3;rotatable=0;labelPosition=right;points=[];portConstraint=eastwest;" parent="24" vertex="1">
                    <mxGeometry y="70" width="210" height="8" as="geometry"/>
                </mxCell>
                <mxCell id="27" value="+ method(type): type" style="text;strokeColor=none;fillColor=none;align=left;verticalAlign=top;spacingLeft=4;spacingRight=4;overflow=hidden;rotatable=0;points=[[0,0.5],[1,0.5]];portConstraint=eastwest;" parent="24" vertex="1">
                    <mxGeometry y="78" width="210" height="26" as="geometry"/>
                </mxCell>
                <mxCell id="28" value="Consumo Cliente" style="swimlane;fontStyle=1;align=center;verticalAlign=top;childLayout=stackLayout;horizontal=1;startSize=26;horizontalStack=0;resizeParent=1;resizeParentMax=0;resizeLast=0;collapsible=1;marginBottom=0;" parent="1" vertex="1">
                    <mxGeometry x="70" y="780" width="210" height="134" as="geometry"/>
                </mxCell>
                <mxCell id="29" value="+ DataHora: datetime&#10;+ Produto&#10;+ Característica&#10;+ Valor" style="text;strokeColor=none;fillColor=none;align=left;verticalAlign=top;spacingLeft=4;spacingRight=4;overflow=hidden;rotatable=0;points=[[0,0.5],[1,0.5]];portConstraint=eastwest;" parent="28" vertex="1">
                    <mxGeometry y="26" width="210" height="74" as="geometry"/>
                </mxCell>
                <mxCell id="30" value="" style="line;strokeWidth=1;fillColor=none;align=left;verticalAlign=middle;spacingTop=-1;spacingLeft=3;spacingRight=3;rotatable=0;labelPosition=right;points=[];portConstraint=eastwest;" parent="28" vertex="1">
                    <mxGeometry y="100" width="210" height="8" as="geometry"/>
                </mxCell>
                <mxCell id="31" value="+ method(type): type" style="text;strokeColor=none;fillColor=none;align=left;verticalAlign=top;spacingLeft=4;spacingRight=4;overflow=hidden;rotatable=0;points=[[0,0.5],[1,0.5]];portConstraint=eastwest;" parent="28" vertex="1">
                    <mxGeometry y="108" width="210" height="26" as="geometry"/>
                </mxCell>
                <mxCell id="32" value="Composicao Produtos" style="swimlane;fontStyle=1;align=center;verticalAlign=top;childLayout=stackLayout;horizontal=1;startSize=26;horizontalStack=0;resizeParent=1;resizeParentMax=0;resizeLast=0;collapsible=1;marginBottom=0;" parent="1" vertex="1">
                    <mxGeometry x="322" y="804" width="160" height="86" as="geometry"/>
                </mxCell>
                <mxCell id="33" value="+ field: type" style="text;strokeColor=none;fillColor=none;align=left;verticalAlign=top;spacingLeft=4;spacingRight=4;overflow=hidden;rotatable=0;points=[[0,0.5],[1,0.5]];portConstraint=eastwest;" parent="32" vertex="1">
                    <mxGeometry y="26" width="160" height="26" as="geometry"/>
                </mxCell>
                <mxCell id="34" value="" style="line;strokeWidth=1;fillColor=none;align=left;verticalAlign=middle;spacingTop=-1;spacingLeft=3;spacingRight=3;rotatable=0;labelPosition=right;points=[];portConstraint=eastwest;" parent="32" vertex="1">
                    <mxGeometry y="52" width="160" height="8" as="geometry"/>
                </mxCell>
                <mxCell id="35" value="+ method(type): type" style="text;strokeColor=none;fillColor=none;align=left;verticalAlign=top;spacingLeft=4;spacingRight=4;overflow=hidden;rotatable=0;points=[[0,0.5],[1,0.5]];portConstraint=eastwest;" parent="32" vertex="1">
                    <mxGeometry y="60" width="160" height="26" as="geometry"/>
                </mxCell>
                <mxCell id="38" value="" style="endArrow=classic;html=1;exitX=0.479;exitY=1.084;exitDx=0;exitDy=0;exitPerimeter=0;" parent="1" source="27" edge="1">
                    <mxGeometry width="50" height="50" relative="1" as="geometry">
                        <mxPoint x="170" y="748" as="sourcePoint"/>
                        <mxPoint x="171" y="777" as="targetPoint"/>
                    </mxGeometry>
                </mxCell>
                <mxCell id="40" value="" style="endArrow=classic;html=1;entryX=0.998;entryY=0.055;entryDx=0;entryDy=0;entryPerimeter=0;exitX=0;exitY=0.5;exitDx=0;exitDy=0;" parent="1" target="29" edge="1" source="33">
                    <mxGeometry width="50" height="50" relative="1" as="geometry">
                        <mxPoint x="320" y="810" as="sourcePoint"/>
                        <mxPoint x="370" y="760" as="targetPoint"/>
                    </mxGeometry>
                </mxCell>
                <mxCell id="45" value="Comprar" style="ellipse;whiteSpace=wrap;html=1;" parent="1" vertex="1">
                    <mxGeometry x="240" y="310" width="120" height="30" as="geometry"/>
                </mxCell>
                <mxCell id="47" value="" style="endArrow=none;dashed=1;html=1;exitX=0.5;exitY=1;exitDx=0;exitDy=0;" parent="1" source="5" target="45" edge="1">
                    <mxGeometry width="50" height="50" relative="1" as="geometry">
                        <mxPoint x="500" y="260" as="sourcePoint"/>
                        <mxPoint x="550" y="210" as="targetPoint"/>
                    </mxGeometry>
                </mxCell>
                <mxCell id="52" value="Provedor &lt;br&gt;pagamentos" style="shape=umlActor;verticalLabelPosition=bottom;verticalAlign=top;html=1;outlineConnect=0;" parent="1" vertex="1">
                    <mxGeometry x="560" y="360" width="30" height="60" as="geometry"/>
                </mxCell>
                <mxCell id="56" value="Provedor de&lt;br&gt;Autenticação" style="shape=umlActor;verticalLabelPosition=bottom;verticalAlign=top;html=1;outlineConnect=0;" parent="1" vertex="1">
                    <mxGeometry x="590" y="250" width="30" height="60" as="geometry"/>
                </mxCell>
                <mxCell id="58" value="Usuário" style="shape=umlActor;verticalLabelPosition=bottom;verticalAlign=top;html=1;outlineConnect=0;" parent="1" vertex="1">
                    <mxGeometry x="20" y="40" width="30" height="60" as="geometry"/>
                </mxCell>
                <mxCell id="59" value="" style="endArrow=none;html=1;exitX=0.5;exitY=0.5;exitDx=0;exitDy=0;exitPerimeter=0;entryX=0.5;entryY=0.5;entryDx=0;entryDy=0;entryPerimeter=0;" parent="1" source="2" target="58" edge="1">
                    <mxGeometry width="50" height="50" relative="1" as="geometry">
                        <mxPoint x="10" y="190" as="sourcePoint"/>
                        <mxPoint x="95" y="70" as="targetPoint"/>
                    </mxGeometry>
                </mxCell>
                <mxCell id="66" value="include" style="endArrow=open;endSize=12;dashed=1;html=1;exitX=1;exitY=0.5;exitDx=0;exitDy=0;entryX=0.5;entryY=0;entryDx=0;entryDy=0;" parent="1" source="12" target="6" edge="1">
                    <mxGeometry width="160" relative="1" as="geometry">
                        <mxPoint x="365" y="85" as="sourcePoint"/>
                        <mxPoint x="525" y="85" as="targetPoint"/>
                    </mxGeometry>
                </mxCell>
                <mxCell id="67" value="include" style="endArrow=open;endSize=12;dashed=1;html=1;exitX=1;exitY=0.5;exitDx=0;exitDy=0;entryX=0.5;entryY=0;entryDx=0;entryDy=0;" parent="1" source="4" target="6" edge="1">
                    <mxGeometry width="160" relative="1" as="geometry">
                        <mxPoint x="375" y="197" as="sourcePoint"/>
                        <mxPoint x="535" y="197" as="targetPoint"/>
                    </mxGeometry>
                </mxCell>
                <mxCell id="68" value="include" style="endArrow=open;endSize=12;dashed=1;html=1;entryX=0;entryY=0.5;entryDx=0;entryDy=0;exitX=1;exitY=0.5;exitDx=0;exitDy=0;" parent="1" source="5" target="6" edge="1">
                    <mxGeometry width="160" relative="1" as="geometry">
                        <mxPoint x="323" y="227" as="sourcePoint"/>
                        <mxPoint x="483" y="227" as="targetPoint"/>
                    </mxGeometry>
                </mxCell>
                <mxCell id="69" value="include" style="endArrow=open;endSize=12;dashed=1;html=1;exitX=1;exitY=0.5;exitDx=0;exitDy=0;entryX=0;entryY=1;entryDx=0;entryDy=0;" parent="1" source="45" target="6" edge="1">
                    <mxGeometry width="160" relative="1" as="geometry">
                        <mxPoint x="373" y="310" as="sourcePoint"/>
                        <mxPoint x="533" y="310" as="targetPoint"/>
                    </mxGeometry>
                </mxCell>
                <mxCell id="70" value="" style="endArrow=open;endFill=1;endSize=12;html=1;entryX=0.5;entryY=0.5;entryDx=0;entryDy=0;entryPerimeter=0;" parent="1" source="6" target="56" edge="1">
                    <mxGeometry width="160" relative="1" as="geometry">
                        <mxPoint x="442" y="229" as="sourcePoint"/>
                        <mxPoint x="602" y="229" as="targetPoint"/>
                    </mxGeometry>
                </mxCell>
                <mxCell id="71" value="" style="endArrow=open;endFill=1;endSize=12;html=1;exitX=1;exitY=0.5;exitDx=0;exitDy=0;entryX=0;entryY=0.3333333333333333;entryDx=0;entryDy=0;entryPerimeter=0;" parent="1" source="45" target="52" edge="1">
                    <mxGeometry width="160" relative="1" as="geometry">
                        <mxPoint x="442" y="229" as="sourcePoint"/>
                        <mxPoint x="602" y="229" as="targetPoint"/>
                    </mxGeometry>
                </mxCell>
                <mxCell id="72" value="" style="endArrow=open;endFill=1;endSize=12;html=1;entryX=0;entryY=0.3333333333333333;entryDx=0;entryDy=0;entryPerimeter=0;exitX=1;exitY=0.5;exitDx=0;exitDy=0;" parent="1" source="4" target="15" edge="1">
                    <mxGeometry width="160" relative="1" as="geometry">
                        <mxPoint x="442" y="229" as="sourcePoint"/>
                        <mxPoint x="602" y="229" as="targetPoint"/>
                    </mxGeometry>
                </mxCell>
                <mxCell id="73" value="" style="endArrow=open;endFill=1;endSize=12;html=1;exitX=0.5;exitY=0.5;exitDx=0;exitDy=0;exitPerimeter=0;entryX=0;entryY=0.5;entryDx=0;entryDy=0;" parent="1" source="2" target="12" edge="1">
                    <mxGeometry width="160" relative="1" as="geometry">
                        <mxPoint x="37" y="175" as="sourcePoint"/>
                        <mxPoint x="197" y="175" as="targetPoint"/>
                    </mxGeometry>
                </mxCell>
                <mxCell id="74" value="" style="endArrow=open;endFill=1;endSize=12;html=1;exitX=0.5;exitY=0.5;exitDx=0;exitDy=0;exitPerimeter=0;entryX=0;entryY=0.5;entryDx=0;entryDy=0;" parent="1" source="2" target="4" edge="1">
                    <mxGeometry width="160" relative="1" as="geometry">
                        <mxPoint x="27" y="366" as="sourcePoint"/>
                        <mxPoint x="187" y="366" as="targetPoint"/>
                    </mxGeometry>
                </mxCell>
                <mxCell id="75" value="" style="endArrow=open;endFill=1;endSize=12;html=1;exitX=0.5;exitY=0.5;exitDx=0;exitDy=0;exitPerimeter=0;" parent="1" source="2" target="5" edge="1">
                    <mxGeometry width="160" relative="1" as="geometry">
                        <mxPoint x="67" y="389.5" as="sourcePoint"/>
                        <mxPoint x="227" y="389.5" as="targetPoint"/>
                    </mxGeometry>
                </mxCell>
                <mxCell id="76" value="" style="endArrow=open;endFill=1;endSize=12;html=1;exitX=0.5;exitY=0.5;exitDx=0;exitDy=0;exitPerimeter=0;entryX=0;entryY=0.5;entryDx=0;entryDy=0;" parent="1" source="2" target="45" edge="1">
                    <mxGeometry width="160" relative="1" as="geometry">
                        <mxPoint x="75" y="365" as="sourcePoint"/>
                        <mxPoint x="235" y="365" as="targetPoint"/>
                    </mxGeometry>
                </mxCell>
                <mxCell id="77" value="CaracteristicasFisicas" style="swimlane;fontStyle=1;align=center;verticalAlign=top;childLayout=stackLayout;horizontal=1;startSize=26;horizontalStack=0;resizeParent=1;resizeParentMax=0;resizeLast=0;collapsible=1;marginBottom=0;" vertex="1" parent="1">
                    <mxGeometry x="322" y="640" width="160" height="156" as="geometry"/>
                </mxCell>
                <mxCell id="78" value="+ ClienteId: int&#10;+ Idade: int&#10;+ Altura: decimal&#10;+ Sexo: enum&#10;+ Peso: decimal&#10;+ NivelAtividadeFisica: enum" style="text;strokeColor=none;fillColor=none;align=left;verticalAlign=top;spacingLeft=4;spacingRight=4;overflow=hidden;rotatable=0;points=[[0,0.5],[1,0.5]];portConstraint=eastwest;" vertex="1" parent="77">
                    <mxGeometry y="26" width="160" height="96" as="geometry"/>
                </mxCell>
                <mxCell id="79" value="" style="line;strokeWidth=1;fillColor=none;align=left;verticalAlign=middle;spacingTop=-1;spacingLeft=3;spacingRight=3;rotatable=0;labelPosition=right;points=[];portConstraint=eastwest;" vertex="1" parent="77">
                    <mxGeometry y="122" width="160" height="8" as="geometry"/>
                </mxCell>
                <mxCell id="80" value="+ method(type): type" style="text;strokeColor=none;fillColor=none;align=left;verticalAlign=top;spacingLeft=4;spacingRight=4;overflow=hidden;rotatable=0;points=[[0,0.5],[1,0.5]];portConstraint=eastwest;" vertex="1" parent="77">
                    <mxGeometry y="130" width="160" height="26" as="geometry"/>
                </mxCell>
            </root>
        </mxGraphModel>
    </diagram>
</mxfile>